<svg xmlns="http://www.w3.org/2000/svg" xmlns:xlink="http://www.w3.org/1999/xlink" width="2000" zoomAndPan="magnify" viewBox="0 0 1500 1499.999933" height="2000" preserveAspectRatio="xMidYMid meet" version="1.0"><defs><clipPath id="4c06c4235e"><path d="M 0 0 L 150 0 L 150 1200 L 0 1200 Z M 0 0 " clip-rule="nonzero"/></clipPath><clipPath id="016822c466"><rect x="0" width="150" y="0" height="1200"/></clipPath><clipPath id="7dcb2a09b5"><path d="M 0 0 L 150 0 L 150 525 L 0 525 Z M 0 0 " clip-rule="nonzero"/></clipPath><clipPath id="36083ad0f2"><rect x="0" width="150" y="0" height="525"/></clipPath><clipPath id="57c46e5735"><path d="M 0 0 L 150 0 L 150 525 L 0 525 Z M 0 0 " clip-rule="nonzero"/></clipPath><clipPath id="c9b5d577e2"><rect x="0" width="150" y="0" height="525"/></clipPath><clipPath id="f0bd2dee1d"><path d="M 0 0 L 675 0 L 675 150 L 0 150 Z M 0 0 " clip-rule="nonzero"/></clipPath><clipPath id="19a42ef91d"><rect x="0" width="675" y="0" height="150"/></clipPath><clipPath id="38c09bffcb"><path d="M 0 0 L 675 0 L 675 150 L 0 150 Z M 0 0 " clip-rule="nonzero"/></clipPath><clipPath id="87947e01c4"><rect x="0" width="675" y="0" height="150"/></clipPath><clipPath id="c37d2f24a8"><path d="M 0 0 L 900 0 L 900 150 L 0 150 Z M 0 0 " clip-rule="nonzero"/></clipPath><clipPath id="4b3dc1123f"><rect x="0" width="900" y="0" height="150"/></clipPath></defs><g transform="matrix(1, 0, 0, 1, 675, 150)"><g clip-path="url(#016822c466)"><g clip-path="url(#4c06c4235e)"><rect x="-1005" width="2160" fill="#000000" height="2159.999904" y="-479.999985" fill-opacity="1"/></g></g></g><g transform="matrix(1, 0, 0, 1, 1200, 150)"><g clip-path="url(#36083ad0f2)"><g clip-path="url(#7dcb2a09b5)"><rect x="-1530" width="2160" fill="#000000" height="2159.999904" y="-479.999985" fill-opacity="1"/></g></g></g><g transform="matrix(1, 0, 0, 1, 150, 825)"><g clip-path="url(#c9b5d577e2)"><g clip-path="url(#57c46e5735)"><rect x="-480" width="2160" fill="#000000" height="2159.999904" y="-1154.999985" fill-opacity="1"/></g></g></g><g transform="matrix(1, 0, 0, 1, 675, 150)"><g clip-path="url(#19a42ef91d)"><g clip-path="url(#f0bd2dee1d)"><rect x="-1005" width="2160" fill="#000000" height="2159.999904" y="-479.999985" fill-opacity="1"/></g></g></g><g transform="matrix(1, 0, 0, 1, 150, 1200)"><g clip-path="url(#87947e01c4)"><g clip-path="url(#38c09bffcb)"><rect x="-480" width="2160" fill="#000000" height="2159.999904" y="-1529.999985" fill-opacity="1"/></g></g></g><g transform="matrix(1, 0, 0, 1, 300, 675)"><g clip-path="url(#4b3dc1123f)"><g clip-path="url(#c37d2f24a8)"><rect x="-630" width="2160" fill="#000000" height="2159.999904" y="-1004.999985" fill-opacity="1"/></g></g></g></svg>